<?xml version="1.0" encoding="UTF-8" standalone="no"?>
<!DOCTYPE svg PUBLIC "-//W3C//DTD SVG 1.1//EN" "http://www.w3.org/Graphics/SVG/1.1/DTD/svg11.dtd">
<svg width="100%" height="100%" viewBox="0 0 24 24" version="1.1" xmlns="http://www.w3.org/2000/svg" xmlns:xlink="http://www.w3.org/1999/xlink" xml:space="preserve" style="fill-rule:evenodd;clip-rule:evenodd;stroke-linejoin:round;stroke-miterlimit:2;">
    <path d="M14.711,8.11C15.097,7.723 15.097,7.097 14.711,6.711C14.706,6.706 14.702,6.702 14.698,6.698C14.312,6.312 13.688,6.312 13.302,6.698C12.024,7.976 9.348,10.652 8.369,11.631C8.165,11.835 8.165,12.165 8.369,12.369C9.344,13.344 12.006,16.006 13.289,17.289C13.478,17.478 13.733,17.584 14,17.584C14.267,17.584 14.522,17.478 14.711,17.289C14.713,17.287 14.714,17.286 14.716,17.284C15.099,16.901 15.1,16.279 14.717,15.895C13.739,14.915 11.986,13.159 11.214,12.385C11.002,12.172 11.002,11.828 11.214,11.615C11.985,10.843 13.732,9.092 14.711,8.11Z" style="fill:white;fill-rule:nonzero;"/>
    <rect x="0" y="0" width="24" height="24" style="fill:none;fill-rule:nonzero;"/>
</svg>
